<?xml version="1.0" standalone="no"?>
<!DOCTYPE svg PUBLIC "-//W3C//DTD SVG 20010904//EN"
 "http://www.w3.org/TR/2001/REC-SVG-20010904/DTD/svg10.dtd">
<svg version="1.0" xmlns="http://www.w3.org/2000/svg"
 width="473.000000pt" height="438.000000pt" viewBox="0 0 473.000000 438.000000"
 preserveAspectRatio="xMidYMid meet">

<g transform="translate(0.000000,438.000000) scale(0.100000,-0.100000)"
fill="#26404520" stroke="none">
<path d="M2228 4237 c-150 -148 -266 -288 -374 -453 -263 -398 -414 -896 -414
-1362 0 -79 -3 -142 -7 -140 -5 2 -73 35 -153 75 -174 87 -298 133 -474 178
-193 49 -333 66 -583 72 l-223 6 0 -159 c0 -423 72 -762 234 -1099 273 -568
733 -985 1330 -1206 116 -43 282 -85 451 -114 139 -24 167 -26 380 -22 248 5
333 15 545 68 309 77 581 207 845 404 495 371 824 927 920 1555 9 59 19 208
22 339 l6 234 -229 -6 c-325 -9 -507 -39 -774 -129 -96 -33 -298 -124 -431
-195 -3 -2 -9 76 -12 174 -10 278 -45 475 -133 743 -136 413 -381 790 -710
1094 l-82 76 -134 -133z m231 -681 c312 -468 427 -1042 319 -1596 -23 -119
-22 -116 -113 -225 -78 -93 -193 -265 -256 -381 l-43 -81 -58 103 c-75 135
-142 234 -247 363 l-85 106 -22 107 c-119 577 13 1194 357 1661 42 58 52 67
65 56 8 -7 45 -58 83 -113z m-1769 -1478 c628 -151 1134 -618 1341 -1238 40
-122 87 -326 76 -336 -10 -10 -211 34 -331 72 -210 68 -437 192 -611 334 -102
84 -259 252 -337 361 -77 108 -181 304 -232 436 -33 87 -89 297 -99 375 l-5
36 36 -5 c20 -2 93 -18 162 -35z m3543 0 c-11 -92 -75 -314 -123 -432 -215
-523 -675 -935 -1216 -1089 -110 -31 -262 -62 -270 -54 -11 11 36 220 77 342
178 535 585 960 1118 1166 111 43 300 93 413 108 3 1 4 -18 1 -41z"/>
</g>
</svg>
